<svg version="1.1" xmlns="http://www.w3.org/2000/svg" xmlns:xlink="http://www.w3.org/1999/xlink" width="24px" height="24px" viewBox="0,0,256,256"><g fill="none" fill-rule="nonzero" stroke="none" stroke-width="1" stroke-linecap="butt" stroke-linejoin="miter" stroke-miterlimit="10" stroke-dasharray="" stroke-dashoffset="0" font-family="none" font-weight="none" font-size="none" text-anchor="none" style="mix-blend-mode: normal"><g transform="scale(10.66667,10.66667)"><g><path d="M0,0h24v24h-24z" fill="none"></path><path d="M19,9c0.667,1.06 1,2.394 1,4c0,3 -3.5,4 -5,9c-0.667,-0.575 -1,-1.408 -1,-2.5c0,-3.482 5,-5.29 5,-10.5zM14.5,5c0.66407,1.22816 1.00799,2.60383 1,4c0,5 -6,6 -4,13c-1.667,-1.16 -2.5,-2.827 -2.5,-5c0,-3.325 5.5,-6 5.5,-12zM10,1c0.667,1.333 1,2.833 1,4.5c0,6 -9,7.5 -3,16.5c-2.5,-0.5 -4.5,-3 -4.5,-6c0,-6.5 6.5,-7.5 6.5,-15z" fill="#ffffff"></path></g></g></g></svg>
