<svg version="1.1" xmlns="http://www.w3.org/2000/svg" xmlns:xlink="http://www.w3.org/1999/xlink" width="64pt" height="64pt" viewBox="0,0,256,256"><g fill="#ffffff" fill-rule="nonzero" stroke="none" stroke-width="1" stroke-linecap="round" stroke-linejoin="round" stroke-miterlimit="10" stroke-dasharray="" stroke-dashoffset="0" font-family="none" font-weight="none" font-size="none" text-anchor="none" style="mix-blend-mode: normal"><g transform="translate(0,-0.00001) scale(11.33858,11.33858)"><g transform="translate(0,-274.42223)" id="layer1"><path d="M10.61085,275.39246c-0.21017,0.009 -0.37674,0.23085 -0.28088,0.45156c0,0 0.1124,0.26169 0.10454,0.60458c-0.0079,0.34291 -0.11167,0.72937 -0.63356,1.06433c-0.6503,0.41719 -1.48696,1.15729 -2.17779,2.13496c-0.69082,0.97767 -1.23311,2.1966 -1.23311,3.55135c0.0001,2.68227 2.42269,4.82728 5.3607,4.82728c2.93799,0 5.36,-2.14501 5.36008,-4.82728c0,-0.15323 -0.0057,-0.30106 -0.01638,-0.44778c-0.02073,-0.29296 -0.39044,-0.40771 -0.57373,-0.17823c-0.22479,0.27925 -0.6042,0.47034 -1.04229,0.47108c-0.36963,-0.00014 -0.71454,-0.12813 -0.91445,-0.3237c-0.19992,-0.19558 -0.29571,-0.43668 -0.17823,-0.84265c0.47544,-1.6419 0.37534,-2.92471 -0.27836,-3.95378c-0.95745,-1.29952 -2.23994,-1.97121 -3.34666,-2.50149c-0.05043,-0.0233 -0.10138,-0.0323 -0.14989,-0.0302zM11.075,276.43916c1.06719,0.57441 2.04764,1.13848 2.48701,1.83015c0.54327,0.85523 0.6496,1.89393 0.20468,3.43041c-0.1714,0.59233 -0.0073,1.13791 0.34512,1.48251c0.35223,0.34462 0.85276,0.50678 1.36411,0.50698c0.39773,0 0.67108,-0.25961 0.98057,-0.45219c-0.02451,2.27412 -2.09487,4.1446 -4.70573,4.1446c-2.6264,0 -4.71509,-1.88994 -4.71518,-4.18238c0,-1.18131 0.47927,-2.27933 1.11597,-3.1804c0.6367,-0.90107 1.432,-1.59955 1.99956,-1.96366c0.53906,-0.36667 0.97547,-0.99143 0.92389,-1.61602zM17.08564,279.19572c-0.52761,0.0135 -0.9579,0.45246 -0.9579,0.98309c0,0.53904 0.44405,0.98309 0.98309,0.98309c0.53906,0 0.98309,-0.44405 0.98309,-0.98309c0,-0.53905 -0.44403,-0.98309 -0.98309,-0.98309c-0.0084,0 -0.01679,-0.00022 -0.02518,0zM17.11081,279.8406c0.19052,0 0.33819,0.14769 0.33819,0.33821c0,0.19052 -0.14767,0.33755 -0.33819,0.33755c-0.19052,0 -0.33757,-0.14703 -0.33757,-0.33755c0,-0.19052 0.14705,-0.33821 0.33757,-0.33821zM8.62324,280.67381c-0.09477,0.006 -0.18187,0.0543 -0.23806,0.131c-1.37062,1.85401 -0.26451,4.10366 -0.26451,4.10366c0.07846,0.15942 0.2711,0.22531 0.43077,0.14736c0.16037,-0.0775 0.22749,-0.27043 0.14989,-0.43077c0,0 -0.91718,-1.92239 0.20279,-3.43735c0.10634,-0.14384 0.07525,-0.34676 -0.06928,-0.45218c-0.06109,-0.0448 -0.13601,-0.0667 -0.21161,-0.0617zM11.75074,282.43531c-0.09401,-0.00032 -0.18347,0.0403 -0.24498,0.11151c0,0 -0.45348,0.5311 -0.90941,1.18777c-0.22796,0.32833 -0.45789,0.6902 -0.63545,1.04292c-0.17756,0.35271 -0.31426,0.68886 -0.31426,1.03033c0,0.14357 0.01464,0.28292 0.04283,0.41879c0.03505,0.17611 0.20722,0.28967 0.38291,0.25255c0.17509,-0.0362 0.28726,-0.20803 0.25003,-0.38291c-0.01928,-0.093 -0.03086,-0.18889 -0.03086,-0.28843c0,-0.14464 0.08877,-0.43222 0.24499,-0.74252c0.15622,-0.31032 0.37114,-0.65155 0.58822,-0.9642c0.31195,-0.4493 0.47458,-0.63006 0.626,-0.81368c0.15147,0.18369 0.31167,0.36456 0.62349,0.81368c0.21709,0.31265 0.43389,0.65388 0.5901,0.9642c0.15621,0.3103 0.2431,0.59788 0.2431,0.74252c0,0.0994 -0.0096,0.19549 -0.02835,0.28843c-0.03723,0.17488 0.07494,0.34667 0.25002,0.38291c0.17402,0.0357 0.34411,-0.0762 0.38039,-0.25003c0.02827,-0.13599 0.04283,-0.27781 0.04283,-0.42131c0,-0.34147 -0.13419,-0.67762 -0.31174,-1.03033c-0.17756,-0.35272 -0.40748,-0.71459 -0.63545,-1.04292c-0.45593,-0.65667 -0.9094,-1.18777 -0.9094,-1.18777c-0.06151,-0.0711 -0.15098,-0.11176 -0.24499,-0.11151zM4.94909,284.49658c-0.52762,0.0135 -0.9579,0.45246 -0.9579,0.9831c0,0.53904 0.44404,0.98309 0.98309,0.98309c0.53905,0 0.98309,-0.44405 0.98309,-0.98309c0,-0.53906 -0.44404,-0.9831 -0.98309,-0.9831c-0.00842,0 -0.0168,-0.0002 -0.02518,0zM4.97428,285.14149c0.19052,0 0.33756,0.14767 0.33756,0.33819c0,0.19052 -0.14704,0.33756 -0.33756,0.33756c-0.19052,0 -0.33819,-0.14704 -0.33819,-0.33756c0,-0.19052 0.14767,-0.33819 0.33819,-0.33819zM5.07189,288.2992c-0.01606,-0.00001 -0.03189,0.00004 -0.04786,0.00065c-0.55502,0.0211 -1.05504,0.40059 -1.20414,0.96168c-0.17402,0.65425 -0.34995,1.30941 -0.52398,1.96366c-0.18347,0.69045 0.23273,1.40599 0.92326,1.59272l0.2601,0.0706c0.00648,0.0715 0.01877,0.14372 0.03779,0.21538l0.52146,1.96366c0.18365,0.6902 0.90191,1.10261 1.59209,0.91633l0.01322,-0.004c0.00258,-0.00033 0.00548,-0.00098 0.00819,-0.001c0.01525,-0.004 0.03034,-0.009 0.04535,-0.0133l4.58922,-1.23815l4.63016,1.24823c0.0038,0.00097 0.0076,0.002 0.01133,0.004c0.00032,0.00011 0.00097,0.00063 0.0013,0.00063l0.01763,0.005c0.69018,0.18626 1.40906,-0.22612 1.59272,-0.91633l0.52335,-1.96366c0.01873,-0.0706 0.03082,-0.14289 0.03716,-0.21539l0.26073,-0.0706c0.69052,-0.18641 1.10422,-0.90208 0.92074,-1.59271l-0.52083,-1.96366c-0.18366,-0.6902 -0.90255,-1.10258 -1.59272,-0.91633l-5.87398,1.58579l-5.88216,-1.58579c-0.11316,-0.0306 -0.22761,-0.0458 -0.34008,-0.0459zM17.53213,288.94348c0.28025,0.01 0.5287,0.19975 0.60459,0.48493l0.52398,1.96114c0.09408,0.35396 -0.11275,0.71114 -0.46919,0.80738l-10.61938,2.86614c0.05318,-0.194 0.06203,-0.40303 0.01699,-0.61026l3.19992,-0.86344c0.17256,-0.0469 0.27397,-0.22572 0.22609,-0.39801c-0.04692,-0.17135 -0.22336,-0.27244 -0.39487,-0.2261l-1.06937,0.28908c-0.05672,-0.37913 0.18711,-0.75101 0.59766,-0.83384l2.70869,-0.73306c0.17233,-0.0458 0.2748,-0.22326 0.22861,-0.3955c-0.04692,-0.17137 -0.22335,-0.27244 -0.39487,-0.2261l-2.67091,0.72111c-0.76707,0.15474 -1.23354,0.91145 -1.0933,1.63553l-1.50644,0.40684l-0.38291,-1.39937c-0.06304,-0.2319 -0.18586,-0.43271 -0.34764,-0.59011l10.6452,-2.87305c0.0663,-0.0179 0.13245,-0.0256 0.19712,-0.0233zM5.09645,288.94448c0.04841,0.001 0.09694,0.009 0.14674,0.0221l4.81154,1.29861l-1.87675,0.50697l-2.63249,-0.70598c-0.17224,-0.0462 -0.34964,0.0563 -0.3955,0.22862c-0.04619,0.17224 0.05629,0.34901 0.22861,0.39487l1.55997,0.4169l-1.43338,0.3867c-0.02164,0.005 -0.04325,0.01 -0.06487,0.0151c-0.01199,0.004 -0.02377,0.007 -0.03527,0.0126c-0.37871,0.11371 -0.67096,0.38825 -0.82061,0.72803l-0.19586,-0.0523c-0.3564,-0.0964 -0.56316,-0.45374 -0.46919,-0.80738c0.17402,-0.65424 0.34743,-1.30689 0.52146,-1.96114c0.07591,-0.28567 0.32835,-0.47246 0.60711,-0.48304c0.01612,-0.00065 0.03236,-0.001 0.04849,-0.00065zM16.23037,290.12848c-0.02809,0.00014 -0.05604,0.004 -0.08313,0.011l-1.79488,0.48053c-0.17255,0.0458 -0.27504,0.22312 -0.22861,0.3955c0.04582,0.17224 0.22269,0.27464 0.39487,0.22862l1.79488,-0.48368c0.17224,-0.0458 0.27464,-0.22268 0.22861,-0.39487c-0.03839,-0.14044 -0.16614,-0.23775 -0.31174,-0.23743zM5.77095,292.10914c0.29621,-0.004 0.56441,0.19102 0.64553,0.48934l0.53343,1.95925c0.09534,0.35041 -0.10783,0.70352 -0.46226,0.79731c-0.00258,0.00096 -0.00503,0.001 -0.00754,0.002l-0.01574,0.005c-0.35361,0.0954 -0.70894,-0.11065 -0.80234,-0.46163l-0.52146,-1.96114c-0.09403,-0.35394 0.11018,-0.71112 0.46667,-0.80739l0.01322,-0.004c0.05051,-0.0122 0.10086,-0.0184 0.15052,-0.0189zM17.40302,293.07586l-0.48493,1.82447c-0.09335,0.35104 -0.44811,0.55707 -0.80171,0.46163l-0.0082,-0.002c-0.0052,-0.001 -0.01036,-0.002 -0.01573,-0.005c-0.35444,-0.0938 -0.55949,-0.44688 -0.46415,-0.7973l0.296,-1.0826zM15.20194,293.67037l-0.19523,0.71795c-0.06214,0.22838 -0.05745,0.4603 0.0013,0.6745l-2.48198,-0.67012z" id="path46567"></path></g></g></g></svg>
