<svg xmlns="http://www.w3.org/2000/svg" width="48.41" height="46.97" viewBox="0 0 48.41 46.97">
  <defs>
    <style>
      .cls-1 {
        fill: #fff;
        fill-rule: evenodd;
      }
    </style>
  </defs>
  <path id="Icon2.svg" class="cls-1" d="M1186.59,1050.54c-0.42.41-2.29,2.55-3.95,4.45-1.83,2.09-3.56,4.07-4.02,4.53a1.377,1.377,0,0,0-.33.48h1.27a1.012,1.012,0,0,1,1.01,1v5h-2.02v-4h-12.1v4h-2.02v-5a1,1,0,0,1,1.01-1h1.01v-4.72a7.618,7.618,0,0,1,1.72-4.95c0.59-.58,1.64-1.61,2.48-2.42,0.53-.52.97-0.95,1.14-1.11a3.945,3.945,0,0,1,1.88-1.03,1.185,1.185,0,0,0,.47-0.18c1.23-1.22,1.71-1.73,2.07-2.12,0.23-.24.41-0.43,0.69-0.71a4.272,4.272,0,0,1,2.77-1.31l1.16-3.63c-0.75-2.43-.96-4.33.2-6.18a4.944,4.944,0,0,1,4.57-2.58,0.985,0.985,0,0,1,.79.61c0.75,1.86,1.02,5.78,1.18,8.99l0.02,0.51C1187.6,1039.27,1187.92,1049.22,1186.59,1050.54Zm-1.01-11.25-0.03-.54a48.566,48.566,0,0,0-.81-7.66,3.657,3.657,0,0,0-1.99,1.6c-0.71,1.13-.69,2.39.1,4.82a1.056,1.056,0,0,1,0,.61l-1.22,3.82a3.366,3.366,0,0,1,1.49,1.97,3.905,3.905,0,0,1-1.23,3.8c-0.71.71-4.69,4.74-4.69,4.74l-1.44-1.4s3.99-4.04,4.7-4.75a1.972,1.972,0,0,0,.71-1.88,1.328,1.328,0,0,0-.95-0.94,2,2,0,0,0-1.89.7c-0.26.25-.43,0.43-0.64,0.66-0.37.39-.87,0.92-2.12,2.16a2.818,2.818,0,0,1-1.36.7,1.921,1.921,0,0,0-1,.51c-0.16.17-.61,0.6-1.15,1.13-0.83.81-1.88,1.83-2.46,2.41a5.688,5.688,0,0,0-1.13,3.53V1060h7.74a3.166,3.166,0,0,1,.99-1.89c0.41-.41,2.27-2.55,3.92-4.43,1.76-2.01,3.42-3.92,3.97-4.48C1185.56,1048.07,1185.68,1041.01,1185.58,1039.29Zm-20.72,2.89-0.43-1.95c1.86-.41,5.15-1.59,6.3-5.01,1.69-5.05.48-10.61-2.87-13.7a19.4,19.4,0,0,1-4.67,4.22c-2.59,1.87-5.04,3.64-5.95,7.37-0.47,1.94.81,5.51,3.43,7.24,0.43-4.19,2.21-7.83,3.75-10.98,0.42-.87.84-1.71,1.21-2.54l1.84,0.82c-0.38.84-.8,1.7-1.24,2.59-2.4,4.92-5.13,10.49-2.71,17.42l-1.9.65a18.16,18.16,0,0,1-1.04-5.72c-4.18-1.97-5.97-7.15-5.3-9.94,1.08-4.45,4.08-6.61,6.73-8.52,1.86-1.35,3.63-2.62,4.73-4.58a1,1,0,0,1,.66-0.49,1.037,1.037,0,0,1,.82.17c4.66,3.38,6.52,10.37,4.42,16.62C1171.18,1040.2,1167.14,1041.68,1164.86,1042.18Zm-6.18,8.15a7.92,7.92,0,0,1,1.72,4.92V1060h1.01a1.012,1.012,0,0,1,1.01,1v5h-2.02v-4h-12.1v4h-2.02v-5a1,1,0,0,1,1.01-1h1.27a1.531,1.531,0,0,0-.33-0.48c-0.46-.46-2.19-2.44-4.02-4.53-1.66-1.9-3.54-4.04-3.95-4.45-1.33-1.32-1.01-11.27-1-11.37l0.02-.51c0.15-3.21.42-7.13,1.18-8.99a0.985,0.985,0,0,1,.78-0.61,4.927,4.927,0,0,1,4.57,2.58c1.17,1.85.96,3.75,0.2,6.18l1.16,3.63a4.274,4.274,0,0,1,2.78,1.31c0.27,0.28.46,0.47,0.69,0.71,0.36,0.39.84,0.9,2.07,2.12a1.185,1.185,0,0,0,.47.18,3.989,3.989,0,0,1,1.88,1.03c0.17,0.16.61,0.59,1.14,1.11C1157.03,1048.72,1158.09,1049.75,1158.68,1050.33Zm-3.89-.99c-0.54-.53-0.99-0.96-1.15-1.12a1.869,1.869,0,0,0-1-.52,2.776,2.776,0,0,1-1.36-.7c-1.25-1.24-1.75-1.77-2.12-2.16-0.21-.23-0.38-0.41-0.64-0.66a2,2,0,0,0-1.89-.7,1.328,1.328,0,0,0-.95.94,1.985,1.985,0,0,0,.7,1.88c0.72,0.71,4.71,4.75,4.71,4.75l-1.45,1.4s-3.97-4.03-4.68-4.74a3.905,3.905,0,0,1-1.23-3.8,3.326,3.326,0,0,1,1.49-1.97l-1.22-3.82a0.912,0.912,0,0,1,0-.61c0.78-2.43.81-3.69,0.1-4.82a3.657,3.657,0,0,0-1.99-1.6,47.407,47.407,0,0,0-.81,7.66l-0.03.54c-0.1,1.72.02,8.78,0.49,9.91,0.55,0.56,2.21,2.47,3.97,4.48,1.65,1.88,3.51,4.02,3.92,4.43a3.223,3.223,0,0,1,.99,1.89h7.74v-4.72a5.944,5.944,0,0,0-1.13-3.53C1156.67,1051.17,1155.62,1050.15,1154.79,1049.34Zm3.59,15.66h-2.01v-2h2.01v2Zm12.1,0h-2.01v-2h2.01v2Z" transform="translate(-1139.22 -1019.03)"/>
</svg>

