<svg xmlns="http://www.w3.org/2000/svg" width="517.91" height="509" viewBox="0 0 517.91 509">
  <defs>
    <style>
      .cls-1 {
        fill: #fff;
        fill-rule: evenodd;
      }
    </style>
  </defs>
  <path id="Pr01.svg" class="cls-1" d="M1698.18,1695.87l48.18,58.04a10.833,10.833,0,0,1-8.28,17.77h-75.53v-21.66h52.49l-39.2-47.21a10.891,10.891,0,0,1,0-13.88l39.2-47.21h-84.86v10.83H1608.6v-21.66a10.81,10.81,0,0,1,10.79-10.83h118.69a10.833,10.833,0,0,1,8.28,17.77Zm-32.05-91.22a193.592,193.592,0,0,0,18-82.05c0-107.49-87.12-194.94-194.21-194.94s-194.21,87.45-194.21,194.94a193.923,193.923,0,0,0,18.01,82.1l-19.57,9.13a215.546,215.546,0,0,1-20.02-91.23c0-119.44,96.8-216.6,215.79-216.6s215.79,97.16,215.79,216.6a215.325,215.325,0,0,1-20.01,91.19Zm-294.9,26.24v21.66h-21.58v-10.83H1264.8l39.19,47.21a10.866,10.866,0,0,1,0,13.88l-39.19,47.21h52.49v21.66h-75.53a10.84,10.84,0,0,1-8.29-17.77l48.19-58.04-48.19-58.04a10.84,10.84,0,0,1,8.29-17.77h118.68A10.81,10.81,0,0,1,1371.23,1630.89Zm118.69-45.69-77.13,40.86,16.29-87.35-63.36-66.59,86.41-8.06,37.79-87.93,37.79,87.93,86.41,8.06-63.36,66.59,16.29,87.35Zm77.79-95.65-54.74-5.12-23.05-53.62-23.05,53.62-54.74,5.12,40.19,42.23-10.11,54.2,47.71-25.28,47.7,25.28-10.11-54.2Zm-228.84,173.83h302.1a10.81,10.81,0,0,1,10.79,10.83v129.96a10.8,10.8,0,0,1-10.79,10.83h-302.1a10.8,10.8,0,0,1-10.79-10.83V1674.21A10.81,10.81,0,0,1,1338.87,1663.38Zm10.78,129.96h280.53v-108.3H1349.65v108.3Z" transform="translate(-1230.97 -1306)"/>
</svg>

