<svg version="1.1" xmlns="http://www.w3.org/2000/svg" xmlns:xlink="http://www.w3.org/1999/xlink" width="520px" height="520px" viewBox="0,0,256,256"><g fill="#ffffff" fill-rule="nonzero" stroke="none" stroke-width="1" stroke-linecap="butt" stroke-linejoin="miter" stroke-miterlimit="10" stroke-dasharray="" stroke-dashoffset="0" font-family="none" font-weight="none" font-size="none" text-anchor="none" style="mix-blend-mode: normal"><g transform="scale(0.49231,0.49231)"><path d="M362,15.09961c-8.2,0 -15.89961,3.2 -21.59961,9l-14.40039,14.40039c-1.9,-1.4 -10.70039,-14.09961 -28.90039,-14.09961c-27.5,0 -44.89922,30.00039 -30.69922,53.90039c-32.3,1 -58.30078,26.89883 -59.30078,59.29883c-23.6,-14 -53.90039,3.00117 -53.90039,30.70117c0,6.5 1.7,12.69922 5,18.19922c-39.4,1.2 -67.39883,38.8 -57.29883,77l-49.09961,49.09961c-19.4,19.3 -5.40039,52.20117 21.59961,52.20117c8.2,0 15.89961,-3.2 21.59961,-9l49.19922,-48.90039c38.4,10.2 75.8,-18.00078 77,-57.30078c13.5,8 31.50039,6.5 43.40039,-5.5c11.8,-11.8 13.6,-29.70039 5.5,-43.40039c32.4,-1 58.30078,-26.99883 59.30078,-59.29883c23.4,13.9 53.90039,-2.80117 53.90039,-30.70117c0,-18.1 -12.70156,-26.99844 -14.10156,-28.89844l14.40039,-14.40039c19.3,-19.3 5.40039,-52.30078 -21.59961,-52.30078zM158,25.30078c-5.58365,0.0691 -10.07378,4.61515 -10.07378,10.19922c0,5.58407 4.49013,10.13012 10.07378,10.19922c3.67391,0.04547 7.08836,-1.88849 8.93857,-5.06282c1.8502,-3.17434 1.8502,-7.09845 0,-10.27279c-1.8502,-3.17434 -5.26466,-5.10829 -8.93857,-5.06282zM362,35.5c9,0 13.69922,11.00039 7.19922,17.40039l-14.39844,14.40039l-7.20117,-7.20117l-7.19922,-7.19922l14.40039,-14.40039c1.9,-1.9 4.49922,-3 7.19922,-3zM297.09961,44.90039c4.1,0 7.90078,1.6 10.80078,4.5l39.69922,39.69922l10.80078,10.80078c9.5,9.5 2.89922,26.09961 -10.80078,26.09961c-4.1,0 -7.89883,-1.6 -10.79883,-4.5l-25.20117,-25.19922l-25.29883,-25.30078c-9.7,-9.7 -2.70117,-26.09961 10.79883,-26.09961zM219.19922,55.90039c-5.6,0 -10.19922,4.59922 -10.19922,10.19922c0,5.7 4.59922,10.20117 10.19922,10.20117c5.6,0 10.20117,-4.60117 10.20117,-10.20117c0,-5.6 -4.60117,-10.19922 -10.20117,-10.19922zM66.15039,55.90234c-4.7332,0.02734 -8.98867,3.38477 -9.95117,8.19727c-1.2,5.6 2.40039,10.9 7.90039,12l32.30078,6.5l-17.09961,17.09961c-5.6,5.6 -2.90078,15.20156 4.69922,17.10156c43.4,10.7 41.00078,10.5 43.30078,10.5c4.6,0 8.69844,-3.10117 9.89844,-7.70117c1.4,-5.5 -1.99844,-11.00039 -7.39844,-12.40039l-23.30078,-5.79883l17.90039,-17.90039c5.8,-5.8 2.79883,-15.59922 -5.20117,-17.19922l-51,-10.20117c-0.6875,-0.1375 -1.37266,-0.20117 -2.04883,-0.19727zM438.5,56c-14.1,0 -25.5,11.4 -25.5,25.5c0,14 11.5,25.5 25.5,25.5c14.1,0 25.5,-11.4 25.5,-25.5c0,-14.1 -11.4,-25.5 -25.5,-25.5zM438.5,76.30078c2.8,0 5.09961,2.29961 5.09961,5.09961c0,2.8 -2.29961,5.09961 -5.09961,5.09961c-2.8,0 -5.09961,-2.29961 -5.09961,-5.09961c0,-2.8 2.29961,-5.09961 5.09961,-5.09961zM268.19922,98.69922c22.6,0 40.80078,18.20078 40.80078,40.80078c0,22.6 -18.30078,40.80078 -40.80078,40.80078c-22.7,0 -40.79883,-18.40078 -40.79883,-40.80078c0,-22.6 18.29883,-40.80078 40.79883,-40.80078zM45.69922,127.40039c-5.63341,0 -10.20019,4.56678 -10.20019,10.20019c0,5.63341 4.56678,10.20019 10.20019,10.2002c5.63341,0 10.2002,-4.56678 10.2002,-10.2002c0,-5.63341 -4.56678,-10.2002 -10.2002,-10.20019zM484.5,127.40039c-5.63341,0 -10.2002,4.56678 -10.2002,10.20019c0,5.63341 4.56678,10.20019 10.2002,10.2002c5.63341,0 10.2002,-4.56678 10.2002,-10.2002c0,-5.63341 -4.56678,-10.2002 -10.2002,-10.20019zM253.90039,143.80078c-2.6,0 -5.20117,1 -7.20117,3c-4,4 -4,10.39844 0,14.39844c11.8,11.9 31.20117,11.9 43.20117,0c4,-4 4,-10.39844 0,-14.39844c-4,-4 -10.40039,-4 -14.40039,0c-4,4 -10.40039,4 -14.40039,0c-2,-2 -4.59922,-3 -7.19922,-3zM189.38867,153.11133c3.6366,0.08984 7.31055,1.48828 10.31055,4.48828l25.20117,25.20117l25.19922,25.19922c6,6 6,15.69961 0,21.59961c-5.9,5.9 -15.59961,6 -21.59961,0l-50.5,-50.40039c-2.9,-2.9 -4.5,-6.69883 -4.5,-10.79883c0.06875,-9.35 7.88816,-15.48672 15.88867,-15.28906zM433.5,155.09961c-8.2,0 -15.89961,3.2 -21.59961,9l-14.40039,14.40039c-1.9,-1.4 -10.70039,-14.09961 -28.90039,-14.09961c-27.5,0 -44.89922,30.00039 -30.69922,53.90039c-32.3,1 -58.30078,26.89883 -59.30078,59.29883c-13.4,-8 -31.50039,-6.5 -43.40039,5.5c-12,12 -13.5,30.00039 -5.5,43.40039c-39.4,1.2 -67.39922,38.8 -57.19922,77l-49.09961,49.09961c-5.8,5.8 -9,13.49961 -9,21.59961c0,27.2 33.09883,40.80156 52.29883,21.60156l49.10156,-49.10156c38.1,10.2 75.8,-17.69883 77,-57.29883c13.4,7.9 31.4,6.6 43.5,-5.5c11.8,-11.8 13.6,-29.70039 5.5,-43.40039c32.3,-1 58.29883,-26.90078 59.29883,-59.30078c13.4,8 31.40039,6.5 43.40039,-5.5c13.7,-13.8 13.70078,-36.39883 -0.19922,-50.29883l-3.60156,-3.59961l14.40039,-14.40039c19.3,-19.3 5.40039,-52.30078 -21.59961,-52.30078zM433.40039,175.5c9.1,0 13.59922,11.00039 7.19922,17.40039l-14.40039,14.40039l-14.39844,-14.40039l14.39844,-14.40039c1.9,-1.9 4.50117,-3 7.20117,-3zM50.80078,178.40039c-14.1,0 -25.5,11.4 -25.5,25.5c0,14.1 11.4,25.5 25.5,25.5c14.1,0 25.5,-11.5 25.5,-25.5c0,-14.1 -11.4,-25.5 -25.5,-25.5zM368.5,184.80078c4.1,0 7.90078,1.6 10.80078,4.5l10.79883,10.79883l39.70117,39.70117c2.9,2.9 4.5,6.69883 4.5,10.79883c0,13.7 -16.50156,20.40078 -26.10156,10.80078l-50.5,-50.5c-9.6,-9.6 -2.69922,-26.09961 10.80078,-26.09961zM50.80078,198.80078c2.8,0 5.09961,2.29961 5.09961,5.09961c0,2.8 -2.29961,5.09961 -5.09961,5.09961c-2.8,0 -5.10156,-2.29961 -5.10156,-5.09961c0,-2.8 2.30156,-5.09961 5.10156,-5.09961zM160,206.90039c22.6,0 40.80078,18.29883 40.80078,40.79883c0,22.6 -18.30078,40.80078 -40.80078,40.80078c-22.5,0 -40.80078,-18.20078 -40.80078,-40.80078c0,-22.5 18.30078,-40.79883 40.80078,-40.79883zM339.59961,238.69922c22.6,0 40.80078,18.30078 40.80078,40.80078c0.1,22.5 -18.20078,40.80078 -40.80078,40.80078c-22.5,0 -40.79883,-18.30078 -40.79883,-40.80078c0,-22.5 18.19883,-40.80078 40.79883,-40.80078zM145.59961,252c-2.6,0 -5.19922,1 -7.19922,3c-4,4 -4,10.40039 0,14.40039c11.9,11.9 31.29922,11.9 43.19922,0c4,-4 4,-10.40039 0,-14.40039c-4,-4 -10.40039,-4 -14.40039,0c-4,4 -10.39844,4 -14.39844,0c-2,-2 -4.60117,-3 -7.20117,-3zM110.09961,283.19922c4.5,6.3 9.30039,10.60039 14.40039,14.40039l-43.90039,43.90039c-4,4.1 -10.40039,4 -14.40039,0c-4,-4 -4,-10.40039 0,-14.40039zM323,284.59961c-2.6,0 -5.19922,1 -7.19922,3c-4,4 -4,10.40039 0,14.40039c11.9,11.9 31.29883,11.9 43.29883,0c4,-4 4,-10.40039 0,-14.40039c-4.1,-4 -10.5,-4 -14.5,0c-4,4 -10.40039,4 -14.40039,0c-2,-2 -4.59922,-3 -7.19922,-3zM260.83789,293.03516c3.6322,0.09887 7.29297,1.49609 10.26172,4.46484l50.5,50.5c9.6,9.6 2.80117,26.09961 -10.79883,26.09961c-4.1,0 -7.90078,-1.6 -10.80078,-4.5l-50.5,-50.5c-2.9,-2.9 -4.5,-6.69883 -4.5,-10.79883c0,-9.41875 7.84705,-15.48315 15.83789,-15.26562zM464.09961,341.59961c-2.6,0 -5.19922,1 -7.19922,3l-20.5,20.40039c-4,4 -4,10.40039 0,14.40039l13.19922,13.19922l-13.19922,13.20117c-4,4 -4,10.39844 0,14.39844l20.40039,20.40039c2,2 4.59922,3 7.19922,3c9,0 13.69922,-11.00039 7.19922,-17.40039l-13.09961,-13.19922l13.20117,-13.19922c4,-4 4,-10.40039 0,-14.40039l-13.20117,-13.20117l13.20117,-13.19922c3.9,-3.9 3.9,-10.40039 0,-14.40039c-2,-2 -4.60117,-3 -7.20117,-3zM231.40039,347c10.9,0 21.10039,4.2 28.90039,12c15.9,15.7 15.9,41.59961 0,57.59961c-7.7,7.7 -18.00039,12 -28.90039,12c-8.6,0 -15.40039,-2.99883 -14.90039,-2.79883c-14,-5.4 -20.39922,-17.4 -19.19922,-15.5c-17.9,-27.2 1.69961,-63.30078 34.09961,-63.30078zM402.90039,382.40039c-5.6,0 -10.20117,4.59922 -10.20117,10.19922c0,5.6 4.60117,10.20117 10.20117,10.20117c5.6,0 10.19922,-4.60117 10.19922,-10.20117c0,-5.6 -4.59922,-10.19922 -10.19922,-10.19922zM217,391.90039c-2.6,0 -5.19922,1 -7.19922,3c-4,4 -4,10.40039 0,14.40039c11.9,11.9 31.29883,11.9 43.29883,0c4,-4 4,-10.40039 0,-14.40039c-4,-4 -10.5,-4 -14.5,0c-4,4 -10.50039,4 -14.40039,0c-2,-2 -4.59922,-3 -7.19922,-3zM86.59961,392.59961c-5.6,0 -10.19922,4.60117 -10.19922,10.20117c0,5.6 4.59922,10.19922 10.19922,10.19922c5.6,0 10.20117,-4.59922 10.20117,-10.19922c0,-5.6 -4.60117,-10.20117 -10.20117,-10.20117zM181.59961,423.19922c4.4,6.2 10.10039,11.60039 14.40039,14.40039l-43.90039,43.90039c-1.9,1.9 -4.49922,3 -7.19922,3c-9.1,0 -13.60117,-11.00039 -7.20117,-17.40039zM331.40039,453.90039c-5.6,0 -10.20117,4.59922 -10.20117,10.19922c0,5.6 4.60117,10.20117 10.20117,10.20117c5.6,0 10.19922,-4.60117 10.19922,-10.20117c0,-5.7 -4.49922,-10.19922 -10.19922,-10.19922z"></path></g></g></svg>
