<svg version="1.1" xmlns="http://www.w3.org/2000/svg" xmlns:xlink="http://www.w3.org/1999/xlink" width="24px" height="24px" viewBox="0,0,256,256"><g fill="#ffffff" fill-rule="nonzero" stroke="none" stroke-width="1" stroke-linecap="butt" stroke-linejoin="miter" stroke-miterlimit="10" stroke-dasharray="" stroke-dashoffset="0" font-family="none" font-weight="none" font-size="none" text-anchor="none" style="mix-blend-mode: normal"><g transform="scale(10.66667,10.66667)"><path d="M2.5,21h19c0.827,0 1.5,-0.673 1.5,-1.5v-12c0,-0.827 -0.673,-1.5 -1.5,-1.5h-5.5v-1.5c0,-0.827 -0.673,-1.5 -1.5,-1.5h-5c-0.827,0 -1.5,0.673 -1.5,1.5v1.5h-5.5c-0.827,0 -1.5,0.673 -1.5,1.5v12c0,0.827 0.673,1.5 1.5,1.5zM8.5,7h7h3.5v13h-14v-13zM22,7.5v12c0,0.276 -0.224,0.5 -0.5,0.5h-1.5v-13h1.5c0.276,0 0.5,0.224 0.5,0.5zM9,4.5c0,-0.276 0.224,-0.5 0.5,-0.5h5c0.276,0 0.5,0.224 0.5,0.5v1.5h-6zM2,7.5c0,-0.276 0.224,-0.5 0.5,-0.5h1.5v13h-1.5c-0.276,0 -0.5,-0.224 -0.5,-0.5z"></path></g></g></svg>
