<svg xmlns="http://www.w3.org/2000/svg" width="672.97" height="627.031" viewBox="0 0 672.97 627.031">
  <defs>
    <style>
      .cls-1 {
        fill: #fff;
        fill-rule: evenodd;
      }
    </style>
  </defs>
  <path id="Tree.svg" class="cls-1" d="M1166.19,939.872H1058.98V1024h-28.07V939.872H918.662V911.83H1030.91V861.549L978.9,809.573l19.84-19.826,32.171,32.15V687.489h28.07V821.9l32.17-32.15,19.84,19.826-52.01,51.976V911.83h107.21a102.651,102.651,0,1,0,0-205.3c-7.15,0-13.91-5.346-14.7-12.447-5.61-50.875-52.41-90.72-106.55-90.72-51.544,0-91.665,37.305-97.557,90.72l-27.9-3.08c7.4-67.033,60.161-115.683,125.456-115.683,63.98,0,119.89,44.679,132.51,103.728,67.21,5.991,119.53,62.07,119.53,130.129C1296.98,881.241,1238.31,939.872,1166.19,939.872ZM946.725,436.565c-16.807,26.605-48.74,78.534-76.22,131.216L845.62,554.814C885.488,478.382,934.509,403.62,935,402.874c5.193-7.9,18.265-7.9,23.458,0,0.487,0.746,49.506,75.508,89.376,151.94l-24.89,12.967C995.464,515.1,963.532,463.17,946.725,436.565ZM792.38,953.25V1024H764.317V953.25C685.763,946.141,624,879.977,624,799.66c0-80.651,136.737-293.051,142.562-302.054,5.165-8,18.4-8,23.567,0,5.824,9,142.561,221.4,142.561,302.054C932.693,879.977,870.934,946.141,792.38,953.25ZM778.348,531.4c-43.807,70.175-126.282,213.578-126.282,268.26,0,64.839,49.2,118.41,112.251,125.408V861.549l-66.046-66,19.84-19.826L764.317,821.9V673.468H792.38v78.323l32.174-32.151,19.84,19.826L792.38,791.443V925.068c63.05-7,112.251-60.569,112.251-125.408C904.631,744.957,822.156,601.561,778.348,531.4Z" transform="translate(-624 -396.969)"/>
</svg>

