<svg width="494" height="65.4" xmlns="http://www.w3.org/2000/svg">
 <style type="text/css">.st0{fill:#BE11A5;}</style>

 <g>
  <title>background</title>
  <rect fill="none" id="canvas_background" height="67.4" width="496" y="-1" x="-1"/>
 </g>
 <g>
  <title>Layer 1</title>
  <path id="svg_1" d="m18.8,60l-14.8,-54.7l9.8,0l11.4,42l12.2,-42l9.1,0l12.2,42.2l11.4,-42.2l9.7,0l-14.8,54.7l-11.3,0l-11.9,-40.8l-11.8,40.8l-11.2,0z" class="st0"/>
  <path id="svg_2" d="m86.6,5.3l9.3,0l0,54.7l-9.3,0l0,-54.7z" class="st0"/>
  <path id="svg_3" d="m115.6,51.4l22.5,0l0,8.6l-31.6,0l0,-54.6l9.1,0l0,46z" class="st0"/>
  <path id="svg_4" d="m166.7,5.4c7.1,-0.2 14,2.7 18.9,7.9c10.1,10.9 10.1,27.9 0,38.8c-4.9,5.2 -11.8,8.1 -18.9,7.9l-21.8,0l0,-54.6l21.8,0l0,0zm0,46c5.2,0 9.5,-1.8 12.7,-5.3c3.4,-3.6 5.2,-8.5 5,-13.4c0.2,-5 -1.6,-9.8 -5,-13.4c-3.3,-3.5 -7.9,-5.5 -12.7,-5.3l-12.7,0l0,37.4l12.7,0z" class="st0"/>
  <path id="svg_5" d="m242,44.4c0.1,4.2 -1.7,8.3 -4.8,11.1c-3.2,3 -7.4,4.6 -11.8,4.5l-23.7,0l0,-54.6l22,0c4.2,-0.1 8.3,1.5 11.5,4.3c3.1,2.7 4.8,6.7 4.7,10.8c0.2,4.4 -2,8.6 -5.6,11.1c4.8,2.4 7.8,7.4 7.7,12.8zm-31.2,-30.6l0,14.4l12.9,0c4,0 7.2,-3.2 7.2,-7.2s-3.2,-7.2 -7.2,-7.2l0,0l-12.9,0zm14.6,37.7c4.2,-0.2 7.5,-3.7 7.3,-7.9c-0.1,-4 -3.4,-7.2 -7.3,-7.3l-14.6,0l0,15.3l14.6,-0.1l0,0z" class="st0"/>
  <path id="svg_6" d="m259.8,51.4l24.5,0l0,8.6l-33.6,0l0,-54.6l33.2,0l0,8.6l-24.1,0l0,14.2l22.2,0l0,8.5l-22.2,0l0,14.7z" class="st0"/>
  <path id="svg_7" d="m324,60l-11.8,-19.9l-10.7,0l0,19.9l-9.1,0l0,-54.7l22.2,0c4.7,-0.1 9.3,1.8 12.6,5.2c3.4,3.2 5.3,7.7 5.2,12.4c-0.1,7 -4.4,13.3 -11,15.8l12.6,21.3l-10,0zm-22.5,-46.2l0,18.3l13,0c5,-0.2 8.9,-4.5 8.7,-9.6c-0.2,-4.7 -4,-8.5 -8.7,-8.7l-13,0z" class="st0"/>
  <path id="svg_8" d="m372.5,60l-11.7,-19.9l-10.7,0l0,19.9l-9.1,0l0,-54.7l22.2,0c4.7,-0.1 9.3,1.8 12.6,5.2c3.4,3.2 5.3,7.7 5.2,12.4c-0.1,7 -4.4,13.3 -11,15.8l12.6,21.3l-10.1,0zm-22.4,-46.2l0,18.3l13,0c5.1,-0.3 8.9,-4.6 8.6,-9.7c-0.3,-4.6 -4,-8.4 -8.6,-8.6l-13,0z" class="st0"/>
  <path id="svg_9" d="m389.2,5.3l9.1,0l0,54.7l-9.1,0l0,-54.7z" class="st0"/>
  <path id="svg_10" d="m418.1,51.4l24.5,0l0,8.6l-33.6,0l0,-54.6l33.2,0l0,8.6l-24.1,0l0,14.2l22.2,0l0,8.5l-22.2,0l0,14.7z" class="st0"/>
  <path id="svg_11" d="m449,47.6l7.9,-4.5c2.2,6.2 6.8,9.2 13.7,9.2s10.3,-2.9 10.3,-7.2c0.1,-2 -1,-4 -2.8,-5c-1.8,-1.2 -5.1,-2.5 -9.8,-3.9c-5.3,-1.6 -7.9,-2.6 -11.6,-5s-5.4,-6.1 -5.4,-11c-0.2,-4.4 1.8,-8.7 5.2,-11.5c3.5,-2.9 8,-4.4 12.6,-4.3c8.3,-0.3 15.9,4.5 19.3,12l-7.6,4.3c-2.3,-5 -6.2,-7.6 -11.6,-7.6s-8.7,2.6 -8.7,6.8s2.7,5.9 11.2,8.5c2.1,0.7 3.6,1.2 4.6,1.6c1,0.4 2.4,0.9 4.1,1.6c1.4,0.5 2.8,1.3 4,2.2c2.9,2.3 6.1,6 5.7,11.2c0.2,4.6 -1.8,8.9 -5.4,11.8c-3.6,2.9 -8.3,4.3 -14.2,4.3c-10.9,-0.1 -18.7,-5.2 -21.5,-13.5z" class="st0"/>
 </g>
</svg>