<svg width="450" height="90" xmlns="http://www.w3.org/2000/svg" xmlns:xlink="http://www.w3.org/1999/xlink">
 <style type="text/css">.st0{fill:#FED42B;}
	.st1{fill:#FC3F1D;}
	.st2{fill:#FFFFFF;}
	.st3{clip-path:url(#SVGID_2_);}</style>
 <g>
  <title>background</title>
  <rect fill="none" id="canvas_background" height="92" width="452" y="-1" x="-1"/>
 </g>
 <g>
  <title>Layer 1</title>
  <path id="svg_1" d="m211.6,73.6l8.8,0l12.3,-45.7l0,45.7l9.9,0l0,-60.4l-13.6,0l-12.3,44.3l-12.3,-44.3l-13.9,0l0,60.4l8.5,0l0,-45.7l12.6,45.7zm72.4,-29.9c0,-10.7 -5.3,-14.7 -16.3,-14.7c-6.9,0 -12.3,2.1 -15.5,4l0,8.5c2.7,-2.1 8.8,-4.3 14.2,-4.3c5.1,0 7.2,1.9 7.2,6.4l0,2.4l-1.6,0c-15.8,0 -23,5.3 -23,14.2s5.3,13.9 13.4,13.9c6.1,0 8.8,-1.9 10.7,-4l0.5,0c0,1.1 0.5,2.7 0.8,3.5l10.2,0c-0.3,-3.5 -0.5,-7.2 -0.5,-10.7c-0.1,0 -0.1,-19.2 -0.1,-19.2zm-10.4,19.5c-1.3,1.9 -3.7,3.5 -7.5,3.5c-4.3,0 -6.4,-2.7 -6.4,-6.4c0,-5.1 3.5,-6.9 12.6,-6.9l1.6,0l0,9.9l-0.3,0l0,-0.1zm28.3,-33.4l-9.6,0l0,56.4l10.4,0l0,-17.6c2.7,4 6.4,5.9 11,5.9c10.2,0 17.1,-8 17.1,-22.7c0,-14.7 -6.7,-22.7 -16.6,-22.7c-4.8,0 -8.8,2.1 -11.8,6.4c0.1,-0.1 -0.5,-5.7 -0.5,-5.7zm8.9,36.6c-5.3,0 -8.3,-4.5 -8.3,-14.4c0,-10.2 2.9,-14.7 8.8,-14.7c5.6,0 8.5,4.5 8.5,14.4c0,10.2 -2.9,14.7 -9,14.7zm52.3,7.2l11.8,0l-16.6,-23.5l14.7,-20.3l-10.4,0l-14.7,20.3l0,-20.3l-10.4,0l0,43.8l10.4,0l0,-21.4l15.2,21.4zm46.5,-2.9l0,-8.5c-3.2,2.1 -8.5,4 -13.6,4c-7.5,0 -10.4,-3.5 -11,-11l24.8,0l0,-5.6c0,-15.2 -6.7,-20.8 -17.1,-20.8c-12.6,0 -18.7,9.6 -18.7,23c0,15.2 7.5,22.7 20.6,22.7c7.3,-0.1 12.1,-1.7 15,-3.8zm-16.8,-33.4c5.1,0 6.7,4.3 6.7,9.6l0,0.8l-14.5,0c0.3,-6.9 3,-10.4 7.8,-10.4zm54.2,0.8l0,-8.3l-34.7,0l0,8.3l12.3,0l0,35.5l10.4,0l0,-35.5l12,0z"/>
  <path id="svg_2" d="m128.8,84.3c22.2,0 40.1,-17.9 40.1,-40.1s-17.9,-40.1 -40.1,-40.1s-40.1,17.9 -40.1,40.1c-0.2,22.2 18,40.1 40.1,40.1z" class="st0"/>
  <circle id="svg_3" r="40.099998" cy="44.2" cx="43.1" class="st1"/>
  <path id="svg_4" d="m48.9,26.6l-4,0c-6.9,0 -10.4,3.5 -10.4,8.8c0,5.9 2.4,8.8 7.5,12.3l4,2.9l-11.5,17.9l-9.4,0l11,-16.3c-6.4,-4.5 -9.9,-8.8 -9.9,-16.3c0,-9.4 6.4,-15.8 18.7,-15.8l12.3,0l0,48.1l-8,0l0,-41.7l-0.3,0l0,0.1z" class="st2"/>
  <g id="svg_5">
   <defs transform="translate(0,-1) translate(0,1) translate(0,1) translate(0,1) translate(0,-1) translate(0,1) translate(0,1) translate(0,-1) translate(0,-1) translate(0,-1) translate(-55,-148) ">
    <path d="m183.8,232.3c22.2,0 40.1,-17.9 40.1,-40.1s-17.9,-40.1 -40.1,-40.1s-40.1,17.9 -40.1,40.1c-0.2,22.2 18,40.1 40.1,40.1z" id="SVGID_1_"/>
   </defs>
   <clipPath transform="translate(0,-1) translate(0,1) translate(0,1) translate(0,1) translate(0,-1) translate(0,1) translate(0,1) translate(0,-1) translate(0,-1) translate(0,-1) translate(-55,-148) " id="SVGID_2_">
    <use id="svg_6" xlink:href="#SVGID_1_"/>
   </clipPath>
   <path id="svg_7" d="m109.1,26.1l-35.3,46.2l9.4,10.7l26.2,-34.7l-2.7,19l14.7,5.1l17.9,-28.6c-0.8,5.3 -2.1,17.6 9.6,21.4c18.4,5.6 34.5,-27.5 41.9,-44.3l-10.7,-5.6c-8.3,17.4 -21.1,36.6 -26.2,35.3s-0.5,-17.6 2.4,-28.1l0,-0.3l-16.3,-5.6l-19.5,31.8l2.7,-17.4l-14.1,-4.9z" class="st3"/>
  </g>
 </g>
</svg>